<?xml version="1.0" encoding="utf-8"?>
<!-- Generator: Adobe Illustrator 22.0.0, SVG Export Plug-In . SVG Version: 6.00 Build 0)  -->
<svg version="1.1" id="Layer_2" xmlns="http://www.w3.org/2000/svg" xmlns:xlink="http://www.w3.org/1999/xlink" x="0px" y="0px"
	 viewBox="0 0 598 312.2" style="enable-background:new 0 0 598 312.2;" xml:space="preserve">
<style type="text/css">
	.st0{fill:#4D4D4D;}
	.st1{fill:#FFFFFF;}
	.st2{fill:none;}
	.st3{fill:#FFFFFF;stroke:#FFFFFF;stroke-miterlimit:10;}
	.st4{fill:url(#SVGID_1_);}
	.st5{fill:url(#SVGID_2_);}
	.st6{fill:url(#SVGID_3_);}
	.st7{stroke:#000000;stroke-miterlimit:10;}
	.st8{fill:url(#SVGID_4_);}
	.st9{fill:url(#SVGID_5_);}
	.st10{fill:url(#SVGID_6_);}
	.st11{fill:url(#SVGID_7_);}
	.st12{fill:url(#SVGID_8_);}
	.st13{fill:url(#SVGID_9_);}
	.st14{fill:#ED2024;}
</style>
<g>
	<g>
		<path class="st14" d="M274.3,177.1V52.6h124.4v124.4H274.3z M335.1,168.9l1.5-0.5c1.4-0.4,14.1-4.3,17-7l0.6-0.6l-11.7-53.8
			l19.6-6.1c-0.1,3.7-1.2,12-7.3,19.4l-1.1,1.3l17,11.4l0.9-1c0.2-0.3,22.9-27.3,6.9-55.5l-0.5-0.9l-1.1,0.2
			c-0.2,0-16.2,3.2-39.1,9.7l-5.4-24.7l-1.5,0.3c-0.6,0.1-14.3,3.2-20.2,7.2l-0.9,0.6l5.9,23.2c-8.9,2.9-17.7,5.9-26,9.1l-1.4,0.5
			l0.5,1.4c0.2,0.5,4.9,13.2,7.8,17.1l0.6,0.8l23.9-7.4L335.1,168.9z"/>
		<path d="M397.2,54.1v121.4H275.8V54.1H397.2 M314,91.3c-8.5,2.8-16.8,5.7-24.8,8.7l-2.8,1l1,2.8c0.5,1.4,5,13.4,8,17.4l1.3,1.7
			l2-0.6l21.4-6.7l13.2,52.1l0.8,3l3-0.9c3.4-1,14.6-4.5,17.6-7.3l1.3-1.2l-0.4-1.7l-11.3-51.6l16.2-5c-0.4,4-1.9,10.5-6.8,16.3
			l-2.1,2.6l2.8,1.9l14.5,9.7l2.2,1.5l1.7-2c0.2-0.3,6-7.1,9.8-17.4c5.1-13.9,4.1-27.7-2.7-39.7l-1.1-1.9l-2.1,0.4
			c-0.2,0-15.5,3.1-37.7,9.3l-4.7-21.7l-0.6-2.9l-2.9,0.6c-0.6,0.1-14.6,3.2-20.7,7.5l-1.7,1.2l0.5,2L314,91.3 M400.2,51.1H272.8
			v127.4h127.4V51.1L400.2,51.1z M297.8,119.5c-2.8-3.8-7.6-16.7-7.6-16.7c9.4-3.5,18.6-6.7,27.3-9.5l-6-23.6c5.7-3.9,19.7-7,19.7-7
			l5.4,24.8c24-6.9,40.5-10.2,40.5-10.2c15.6,27.6-6.8,53.8-6.8,53.8l-14.5-9.8c8.6-10.3,7.6-22.4,7.6-22.4l-22.9,7.1l11.9,54.3
			c-2.7,2.5-16.4,6.6-16.4,6.6l-14-55.1L297.8,119.5L297.8,119.5z"/>
	</g>
	<g>
		<path class="st14" d="M416,177.1V52.6h124.4v124.4H416z M464.5,126.3c6.1,6,37.6,35.9,56.7,36.2l1,0l0.4-0.9
			c0.2-0.5,5.3-11.8,5-17.8l0-1.1l-1.1-0.3c-0.2-0.1-25.2-6.4-59.4-45l-1-1.1l-1.1,0.9c-0.2,0.2-22.2,18.3-35.6,31.5l-0.8,0.8l0.6,1
			c0.2,0.4,6.1,10.6,12.6,14.3l0.9,0.5L464.5,126.3z M470.4,91.2l15.1,16.1l13.3-9.1l-9.9-19L470.4,91.2z M494.8,77.7l10.4,16.5
			l13.6-8.6l-6.5-19.3L494.8,77.7z"/>
		<path d="M539,54.1v121.4H417.5V54.1H539 M504.8,96.3l2.5-1.6l11.3-7.2l2-1.3l-0.8-2.2l-5.5-16.3l-1.2-3.7l-3.2,2.1l-14.7,9.5
			l-2.5,1.6l1.6,2.5l8.8,14L504.8,96.3 M485.3,109.3l2.1-1.5l11.2-7.7l2.2-1.5l-1.2-2.4L491.1,80l-1.5-2.9l-2.8,1.8L471.1,89l-3,2
			l2.5,2.6l13,13.8L485.3,109.3 M442.7,147.2l1.6-1.4l20.1-17.4c8,7.8,37.9,35.4,56.7,35.7l2,0l0.8-1.8c0.6-1.2,5.4-12.2,5.1-18.5
			l-0.1-2.2l-2.2-0.5c-0.2-0.1-24.8-6.4-58.6-44.6l-1.9-2.2L464,96c-0.2,0.2-22.3,18.3-35.7,31.6l-1.6,1.6l1.1,2
			c0.3,0.4,6.3,10.9,13.1,14.9L442.7,147.2 M542,51.1H414.5v127.4H542V51.1L542,51.1z M505.7,92.2l-8.8-14l14.7-9.5l5.5,16.3
			L505.7,92.2L505.7,92.2z M485.7,105.4l-13-13.8l15.7-10.2l8.5,16.3L485.7,105.4L485.7,105.4z M442.4,143.5
			c-6.2-3.6-12-13.8-12-13.8c13.5-13.3,35.5-31.4,35.5-31.4c35,39.5,60.2,45.5,60.2,45.5c0.3,5.8-4.9,17.2-4.9,17.2
			c-20.4-0.3-56.6-36.8-56.6-36.8L442.4,143.5L442.4,143.5z"/>
	</g>
	<g>
		<path d="M296,259.7c0.4-1.3,0.7-4.3,0.7-8.9v-13.7c-5.9-12.5-9.6-20.3-11.2-23.4c-1.6-3.1-3-5.5-4.1-7.3c-3.5-5.8-5.6-9.1-6.4-9.9
			c-0.7-0.9-1.5-1.6-2.2-2.1h17.5c0.4,0.7,0.9,1.6,1.5,2.9l12.3,25.1c0.6-1.4,1.3-2.9,2-4.6c7.4-15.4,11.1-23.2,11.2-23.4h16.8
			c-1.7,1.3-3.8,4.2-6.3,8.5c-0.8,1.3-1.6,2.7-2.3,4.4L314,230.3c-1.3,2.8-2.4,5.3-3.3,7.5v14.1c0,3.3,0.2,5.9,0.6,7.8H296z"/>
		<path d="M357.8,260.1c-2.9-0.3-6.3-0.4-10.2-0.4h-4l22.1-59.9c1-2.7,1.5-4.3,1.5-4.7c0-0.4,0-0.7-0.1-0.8l0.1-0.1
			c2.2,0.1,4.5,0.1,7,0.1c2,0,4.5,0,7.3-0.1l0.1,0.1c-0.1,0.1-0.1,0.3-0.1,0.5c0,0.6,0.5,2.3,1.5,5l22.5,60c-0.7,0-1.5,0-2.4,0
			l-2.6-0.1c-0.8,0-1.6,0-2.3,0h-7.9l-4.8-14.2h-23L357.8,260.1z M381.5,233.7l-7.7-22.8l-7.5,22.8H381.5z"/>
		<path d="M469.2,255c-2.5,1.9-5.7,3.4-9.7,4.4s-8.8,1.6-14.6,1.6c-5.8,0-11.9-0.5-18.4-1.5v-64.8c6.6-1,12.3-1.5,17.1-1.5
			c4.8,0,8.8,0.4,11.9,1.3c3.1,0.9,5.6,2.1,7.6,3.6c3.9,2.9,5.8,6.7,5.8,11.3c0,4.6-1.7,8.5-5.2,11.5c4.1,1.2,7.3,3.6,9.6,7.1
			c2.1,3.1,3.1,6.6,3.1,10.3c0,3.8-0.6,7-1.7,9.7C473.5,250.8,471.7,253.1,469.2,255z M440,219.2c1.4,0.2,3.2,0.3,5.3,0.3
			s3.9-0.3,5.3-0.8s2.4-1.2,3.2-2c1.2-1.3,1.8-3.2,1.8-5.6c0-5-3-7.5-9.1-7.5c-2.6,0-4.7,0.1-6.4,0.3V219.2z M447.5,229.7
			c-2.8,0-5.3,0.2-7.5,0.5v19.3c2.4,0.6,4.9,0.9,7.5,0.9c2.6,0,4.9-0.3,6.9-0.9c2-0.6,3.6-1.4,5-2.5c2.7-2.2,4.1-4.9,4.1-8.3
			C463.4,232.7,458.1,229.7,447.5,229.7z"/>
		<path d="M534.2,248c2.1,0,3.6-0.2,4.4-0.6l0.2,0l-0.5,12.3h-38v-65.7c0.9,0.1,1.9,0.1,3,0.1l3.6,0.1c2.4,0.1,4.9,0.1,7.7,0.1
			c7.8,0,15.4-0.1,23-0.4c-0.4,2.9-0.6,6.7-0.6,11.5c0,0.5,0,0.9,0.1,1.2l-0.1,0.1c-1.8-0.5-4.3-0.7-7.5-0.7h-16v12.5h12
			c3.7,0,6-0.1,6.7-0.3l0.2,12.1c-1.6-0.2-3.7-0.2-6.3-0.2h-12.6V248H534.2z"/>
	</g>
	<g>
		<path class="st14" d="M119.3,252.5c-33-5.2-46.4-20.5-54.3-33.4c-8.5-13.7-8.5-27.5-5.8-32.4c7.8-14.5,6.2-20.4,4.6-26l0-0.1
			c-0.2-0.8-0.5-1.6-0.6-2.5c-0.1-0.6-0.2-1.3-0.3-2.1c1.7-2.1,3.3-3.9,4.7-5.5c0,2.7,0,6.2,0,8.9l-0.1,5.1l2.9-4.3
			c0.2-0.3,16.6-24.5,26.3-35.7c0.3,1.8,0.7,4.1,1.3,6.4c-6.5,3.1-12.2,8.5-16.1,15.3c-2.9,5-4.7,10.7-5.2,16.2
			c-0.9,11.1,3.5,20.9,11.6,25.6c3.4,1.9,7.1,2.9,11.2,2.9c10.8,0,21.9-7.2,28.3-18.3c2.9-5,4.7-10.5,5.2-16
			c1-11.2-3.4-21.1-11.6-25.8c-3.3-1.9-6.9-2.9-10.8-2.9c1-1.6,2-3.2,3-4.6c3.4-5.1,6.6-9.3,9.5-12.6c0.8,2.8,2.3,7.5,4.1,12.9
			c3.3,9.6,6.3,17.4,9.1,23.2l1.4,2.8l1.3-2.9c0.1-0.1,6.2-13.3,11.9-24.7c2.4-4.8,4.4-8.6,5.9-11.3c1.2,2.2,3,5.6,4.7,9.4
			c2.4,5.3,4,9.7,4.5,13l0.6,3.6l2.1-3c0.1-0.1,5.3-7.6,11.5-15.4c3.3-4.1,6.2-7.6,8.8-10.4c1.4,1.8,4,5.1,7.1,9
			c2.7,3.4,6.3,7.9,9.9,12.3c-2.4-0.8-5-1.2-7.7-1.2c-10.9,0-22.2,6.7-28.7,17c-1.7,2.7-3.1,5.7-4,8.7c-3.9,12.8,0.3,25,10.6,30.4
			c3.4,1.8,7.2,2.7,11.3,2.7c10.9,0,22.2-6.7,28.7-17c3.5-5.5,5.3-11.5,5.4-17.4c0-2-0.1-4-0.5-5.8c0.5,0.5,1,0.9,1.4,1.2l2,1.5
			l0.4-2.4c0.3-1.7,2.2-13.7,2-21.4c3.8,4.8,9.8,15,10.6,31.7l0.1,2l1.9-0.6c0.3-0.1,7.2-2.5,11.3-7.5c0.8,1.2,1.9,2.8,3.3,4.7
			c1.7,7.6,1.6,14-0.3,18.3c-1.4,3.3-3.7,5.2-7.3,6.1l-2.9,0.7l-0.6,2.9c-0.8,4-1.9,7.4-3.5,10c-0.8,1.3-1.6,2.7-2.5,4.3l-0.1,0.1
			c-14.1,24.8-32.7,41.6-55.1,50.1c-1.6-7.4-1.3-21.7-1-34.5c0.3-15,0.4-22.9-1.2-25.2c-3.2-4.4-10.2-4.5-12.9-4.6
			c-0.3,0-0.6,0-0.8,0l-0.1,0l-0.1,0c-1.3,0-6.9,2.2-22.3,8.5c-3.2,1.3-6.1,2.5-8.2,3.3c-2.4,1-6.1,1.1-9.3,1.1c-0.9,0-1.8,0-2.6,0
			c-0.8,0-1.6,0-2.3,0c-1.4,0-2.4,0-3.2,0.1c-2.8,0.2-4.2,2.1-4.7,3.2l-0.2,0.6l0.2,0.6C122.9,225.5,120.3,246.7,119.3,252.5z
			 M74,194.8c-1.4,0-4.2,0.7-4.6,2.4c-0.2,0.8,0.2,1.7,1,2.1c1.8,1,2.8,3.7,3.6,5.7c0.7,1.9,1.3,3.4,2.8,3.4c0.2,0,0.4,0,0.6-0.1
			c0.4-0.2,1.7-0.6,3.7-5.8c4.4,2.8,5.3,2.8,5.6,2.8c0,0,0,0,0,0c0.5,0,0.8-0.2,1-0.3c0.3-0.2,0.8-0.6,1.6-3.7c3.9,3,4.6,3,5.1,3
			l0.1,0c0.8-0.1,1.5-0.4,2-1c0.4-0.4,0.8-1.2,0.6-2.4c-0.3-1.8-6.8-7.9-8.5-8c0,0,0,0,0,0c-0.7,0-1.8,0.1-4.1,4.2
			c-2.4-2-3.3-2-3.7-2c-0.5,0-0.9,0.2-1.2,0.5c-0.4,0.4-1,0.8-1.6,1.1c-0.4-0.2-0.9-0.6-1.4-1.1C75.8,195.1,75,194.8,74,194.8z
			 M206.3,184.7c-0.6,0-1.1,0.2-1.5,0.6c-0.3,0.3-0.6,0.8-0.5,1.6c0.4,6.5,5.6,9.3,8.2,9.3c0.6,0,1.1-0.2,1.5-0.5
			c0.9-0.7,0.8-1.9,0.8-3.4c0-0.6,0-1.6,0.1-2.1c0.6,0.3,1.5,1.3,2.8,2.9c1,1.2,1.5,1.8,2.4,1.8c0,0,0.1,0,0.1,0l0.1,0
			c0.9-0.1,1.4-0.2,3.3-6.3c5.5,4.1,6.5,4.1,6.9,4.1c0,0,0,0,0,0c0.5,0,0.9-0.2,1.2-0.5c0.3-0.3,0.5-0.8,0.4-1.2
			c-0.1-1.1-3.4-9.7-7-9.7l-0.2,0c-2,0.2-4.6,2.2-6.1,3.6c-1.2-1-2.7-2.1-3.9-2.1c-0.2,0-0.4,0-0.6,0.1c-1.5,0.4-2,2.1-2.4,3.5
			c-0.1,0.2-0.1,0.4-0.2,0.7c-0.4-0.2-1-0.5-1.4-0.7C208.4,185.3,207.3,184.7,206.3,184.7z"/>
		<path d="M188.8,110.2c1.5,1.9,3.6,4.5,6,7.6c2.5,3.2,4.9,6.2,7.2,8.9c-1.2-0.2-2.5-0.3-3.8-0.3c-11.4,0-23.2,6.9-30,17.7
			c-1.8,2.9-3.2,5.9-4.2,9.1c-3.6,11.6-0.7,22.9,7.2,29.4c-2-0.3-3.7-0.3-4.8-0.4c-0.3,0-0.5,0-0.6,0l-0.2,0h-0.2
			c-1.4,0-4.4,1.1-22.8,8.6c-3.2,1.3-6.1,2.5-8.2,3.3c-2.2,0.9-5.8,1-8.8,1c-0.9,0-1.7,0-2.6,0c-0.8,0-1.6,0-2.3,0
			c-1.5,0-2.5,0-3.4,0.1c-3.5,0.3-5.4,2.7-5.9,4.1l-0.5,1.1l0.5,1.1c9.3,22.4,7.7,41.9,6.7,49.2c-31.3-5.3-44.1-20.1-51.8-32.5
			c-8.2-13.2-8.3-26.3-5.8-30.9c4.7-8.8,6.1-14.6,6.1-19.1l4.9-7.3c0.1-0.1,2.3-3.4,5.6-8.1c-1.1,3.1-1.7,6.3-2,9.5
			c-1,11.7,3.7,22,12.4,27c3.6,2.1,7.6,3.1,11.9,3.1c11.3,0,22.9-7.5,29.6-19c3-5.2,4.8-10.9,5.4-16.6c0.5-5.2-0.2-10.2-1.8-14.5
			c0.8,1.8,1.5,3.5,2.3,5l2.8,5.7l2.7-5.7c0.1-0.1,6.2-13.3,11.9-24.6c1.8-3.5,3.3-6.5,4.6-8.8c1,1.9,2.2,4.3,3.4,6.9
			c2.4,5.2,3.9,9.5,4.4,12.6l1.2,7.3l4.2-6c0.1-0.1,5.3-7.5,11.5-15.4C184,115.7,186.5,112.7,188.8,110.2 M83.9,194.9
			c-1.8-1.3-2.7-1.3-3.2-1.3c-0.8,0-1.7,0.3-2.3,0.9c-0.1,0.1-0.3,0.2-0.5,0.4c-0.2-0.1-0.4-0.3-0.6-0.4c-0.9-0.7-2-1.1-3.3-1.1
			c-2,0-5.5,1-6.1,3.5c-0.4,1.5,0.3,3,1.8,3.8c1.3,0.7,2.2,3.2,2.9,4.9c0.8,2,1.6,4.3,4.2,4.3c0.4,0,0.8-0.1,1.1-0.2
			c0.7-0.3,2-0.7,3.9-5c3.5,2.1,4.3,2.1,4.9,2.1c0.7,0,1.3-0.2,1.9-0.6c0.5-0.3,0.9-0.7,1.5-2.4c2.8,2,3.5,2,4.2,2l0.1,0l0.1,0
			c1.2-0.1,2.3-0.6,3.1-1.5c0.8-1,1.1-2.2,0.9-3.6c-0.1-0.7-0.3-1.8-4.1-5.5c-3.9-3.7-5.1-3.8-5.8-3.8l-0.1,0l-0.1,0
			C87.2,191.4,85.9,191.7,83.9,194.9 M122.2,113.8c0.8,2.7,2,6.3,3.3,10.3c2.1,6.2,4.1,11.7,6.1,16.3c-2.1-4.6-5.4-8.3-9.7-10.7
			c-2.8-1.6-5.8-2.6-8.9-3c0.6-0.8,1.1-1.7,1.6-2.5C117.3,120.2,119.8,116.7,122.2,113.8 M95.6,127.9c0.1,0.7,0.3,1.5,0.5,2.2
			c-1.5,0.8-3,1.7-4.5,2.8C93,131.1,94.3,129.4,95.6,127.9 M228.1,130c3.3,5.5,7.1,14.3,7.6,27l0.2,4l3.8-1.3
			c0.3-0.1,6.3-2.1,10.6-6.5c0.6,0.9,1.3,1.8,2,2.9c1.5,7.2,1.4,13.1-0.2,17c-1.2,2.8-3.2,4.5-6.3,5.3l-2,0.5l-1.8,0.5l-0.4,1.9
			l-0.4,2c-0.7,3.8-1.8,7-3.3,9.5c-0.8,1.3-1.6,2.8-2.5,4.3l-0.1,0.2c-13.6,23.9-31.3,40.3-52.7,48.8c-1.2-7.7-0.9-21.3-0.7-32.5
			c0.3-17.3,0.3-23.6-1.5-26.1c0,0-0.1-0.1-0.1-0.1c2.2,0.6,4.5,0.9,7,0.9c11.4,0,23.2-6.9,30-17.7c3.6-5.7,5.6-12,5.7-18.2
			c0-0.8,0-1.6-0.1-2.4l2.4,1.8l0.8-4.8C226.5,144.8,227.7,137,228.1,130 M218.7,182.8c-1.4-1.1-2.7-1.7-3.9-1.7c-0.3,0-0.7,0-1,0.1
			c-1.8,0.5-2.7,2.1-3.1,3.5c-1.6-0.8-2.9-1.5-4.3-1.5c-1,0-1.9,0.4-2.6,1.1c-0.7,0.7-1,1.7-0.9,2.7c0.5,7.6,6.5,10.7,9.7,10.7
			c1,0,1.8-0.3,2.5-0.8c1-0.8,1.3-1.9,1.3-3.1c0.1,0.1,0.1,0.1,0.1,0.2c1.1,1.3,1.9,2.4,3.5,2.4l0.2,0l0.2,0c1.7-0.2,2.5-1,3.9-5.4
			c4.4,3.1,5.4,3.2,6.1,3.2c0.9,0,1.7-0.3,2.3-1c0.6-0.6,0.9-1.5,0.8-2.3c-0.1-1.5-3.6-11.1-8.5-11.1c-0.1,0-0.2,0-0.4,0
			C222.7,179.9,220.4,181.4,218.7,182.8 M66,154.3c0,1.7,0,3.4-0.1,4.9l-0.1,3.5c-0.2-0.9-0.4-1.7-0.7-2.5l0-0.1
			c-0.2-0.8-0.4-1.6-0.6-2.4c-0.1-0.4-0.2-0.9-0.2-1.4C64.9,155.6,65.5,155,66,154.3 M189,105.6c-3.3,3.4-6.8,7.6-10.1,11.7
			c-6.3,8-11.6,15.5-11.6,15.5c-0.7-3.9-2.6-8.9-4.6-13.3c-2.9-6.4-6.1-11.8-6.1-11.8c-1.9,3.1-4.6,8.2-7.3,13.7
			c-5.8,11.5-11.9,24.7-11.9,24.7c-3.3-6.8-6.5-15.5-9-23c-2.9-8.6-4.9-15.4-4.9-15.4c-3.9,4.1-7.9,9.6-11.4,14.8
			c-1.7,2.5-3.2,4.9-4.6,7.1c0.8-0.1,1.7-0.1,2.5-0.1c3.7,0,7.2,0.9,10.4,2.7c8,4.6,11.8,14.1,10.9,24.4c-0.5,5.1-2.1,10.4-5,15.4
			c-6.4,11-17,17.5-27,17.5c-3.7,0-7.2-0.9-10.4-2.7c-7.9-4.6-11.7-14-10.9-24.2c0.4-5.2,2.1-10.6,5-15.6
			c4.2-7.2,10.2-12.5,16.6-15.3c-1.5-5.2-2-10.7-2-10.7c-9.4,9.8-28.6,38.2-28.6,38.2c0.1-4.8,0-12.6,0-12.6
			c-2.4,2.3-5.1,5.3-7.7,8.7c0.1,1,0.2,2,0.4,2.9c0.2,0.9,0.4,1.8,0.7,2.7c1.5,5.4,3,10.9-4.5,24.9c-2.9,5.4-3,19.5,5.9,33.9
			c7,11.4,20.3,29.1,56.8,34.4c0.6-2.8,5.1-26.2-6.3-53.7c0,0,0.8-2,3.4-2.3c0.9-0.1,1.9-0.1,3.1-0.1c1.5,0,3.2,0,4.9,0
			c3.6,0,7.3-0.2,9.9-1.2c8-3.2,28.3-11.8,29.9-11.8c0,0,0,0,0,0c1.3,0.1,9.4-0.4,12.6,4c3,4.1-1.4,47.9,2.4,60.8
			c31.5-11.2,48.9-36.3,57.5-51.3c0.9-1.6,1.8-3.1,2.5-4.4c1.6-2.8,2.9-6.3,3.7-10.5l0.4-2l2-0.5c4-1,6.8-3.3,8.3-7
			c2.3-5.4,1.8-12.7,0.3-19.5c-2.7-3.7-4.6-6.8-4.6-6.8c-3.3,6-11.8,8.8-11.8,8.8c-1.1-25.4-14.2-36.1-14.2-36.1
			c2,5.3-1.3,25.7-1.3,25.7c-1.2-0.9-3.4-3.2-6.1-6.3c2,3.6,3,7.7,2.9,12.2c-0.1,5.4-1.8,11.2-5.2,16.6
			c-6.5,10.2-17.3,16.3-27.5,16.3c-3.7,0-7.3-0.8-10.6-2.5c-9.8-5.2-13.4-16.9-9.9-28.6c0.9-2.8,2.1-5.6,3.9-8.4
			c6.5-10.2,17.3-16.3,27.5-16.3c3.7,0,7.3,0.8,10.6,2.5c1.1,0.6,2.1,1.2,3,2c-4.9-5.8-10.3-12.6-14.7-18.1
			C192.4,110,189,105.6,189,105.6L189,105.6z M218.6,186.8c0,0,4-3.9,6.3-4.1c0,0,0.1,0,0.1,0c2.3,0,5.5,7.2,5.5,8.3
			c0,0.1,0,0.1-0.1,0.1c-1.1,0-7.7-5.1-7.7-5.1s-2.1,7.3-2.7,7.4c0,0,0,0,0,0c-0.6,0-3.3-4.8-5.4-4.8c-2.2,0-0.7,5.3-1.5,6
			c-0.1,0.1-0.3,0.1-0.6,0.1c-1.7,0-6.3-2.1-6.7-7.9c0-0.4,0.2-0.6,0.5-0.6c1.3,0,4.6,2.4,5.8,2.4c0.1,0,0.2,0,0.3-0.1
			c0.8-0.8,1-4.1,2.2-4.4c0.1,0,0.1,0,0.2,0C216.1,184.1,218.6,186.8,218.6,186.8L218.6,186.8z M84.8,199.5c0,0,2.5-5.1,3.6-5.1
			c0,0,0,0,0,0c1.1,0.1,7,5.7,7.1,6.7c0.2,1.1-0.4,1.7-1.2,1.7c0,0,0,0,0,0c-0.8,0-6-4.2-6-4.2s-1,4.7-1.5,5.1c0,0-0.1,0-0.1,0
			c-1,0-6.4-3.6-6.4-3.6s-2.2,6.2-3.4,6.7c0,0-0.1,0-0.1,0c-1.2,0-1.9-6.8-5.6-8.8c-1-0.6,1.2-1.7,2.9-1.7c0.5,0,1,0.1,1.4,0.4
			c1.4,1.2,2.3,1.6,2.3,1.6s1.8-0.9,2.6-1.7c0.1-0.1,0.1-0.1,0.2-0.1C81.7,196.6,84.8,199.5,84.8,199.5L84.8,199.5z"/>
	</g>
	<g>
		<path class="st14" d="M143.7,254.3c-6.2,0-12.2-0.3-17.7-0.9c1.1-2.8,2.5-6.9,2.9-9.6c0.2-1.4-0.2-5-0.9-11.3
			c-0.2-1.5-0.3-3.1-0.5-4.7c0.3-0.3,0.6-0.6,0.9-0.9c3.2-3.3,9.2-9.3,17.5-10.9c2.7-0.5,5.8-0.8,9.2-0.8c7.3,0,14.5,1.2,17.8,2.2
			c0.4,12.9,0.5,26.8,0.5,33.2c-7.7,2.1-15.8,3.3-24.2,3.5C147.4,254.3,145.5,254.3,143.7,254.3
			C143.7,254.3,143.7,254.3,143.7,254.3z"/>
		<path d="M155.1,216.7c6.5,0,12.8,1,16.3,1.9c0.4,11.8,0.5,24.3,0.5,30.9c-7.2,1.9-14.9,3-22.7,3.2c-1.9,0-3.7,0.1-5.5,0.1
			c-5.4,0-10.7-0.2-15.7-0.7c1-2.7,2-5.9,2.3-8.1c0.2-1.5-0.2-4.9-0.9-11.7c-0.1-1.3-0.3-2.6-0.4-4c0.1-0.1,0.3-0.3,0.4-0.4
			c3.1-3.1,8.9-9,16.7-10.5C148.8,217,151.8,216.7,155.1,216.7 M155.1,213.7c-3.2,0-6.5,0.2-9.5,0.8c-10.3,1.9-17.2,10.4-19.7,12.7
			c0.8,7.6,1.7,14.7,1.5,16.4c-0.4,3.2-2.8,9.3-3.5,11c6,0.7,12.6,1.1,19.9,1.1c1.8,0,3.7,0,5.6-0.1c9.4-0.3,17.9-1.7,25.6-3.9
			c0-5.8-0.1-21.4-0.6-35.5C171.5,215.3,163.5,213.7,155.1,213.7L155.1,213.7z"/>
	</g>
	<g>
		<path class="st14" d="M257,100.8c-5.7-3.6-14.7-8.4-21.1-11c4.9-0.9,11.5-2.1,14.3-3.1l1.8-0.6l-1-1.6
			c-0.6-0.9-14.6-21.9-55.1-28.4c1-1,2.3-2.2,3.7-3.4H257V100.8z"/>
		<path d="M255.5,54.1v44c-4.3-2.6-9.7-5.5-14.6-7.7c3.8-0.7,7.7-1.6,9.7-2.3l3.6-1.3l-2.1-3.2c-0.6-0.9-14.3-21.4-53.1-28.6
			c0.3-0.3,0.7-0.6,1.1-0.9h1.7h14.9H255.5 M258.5,51.1h-41.8h-14.9H199c-3.7,3-6.3,6-6.3,6c42.5,5.9,56.9,28.2,56.9,28.2
			c-4.5,1.6-20,4-20,4c5.2,0.8,21.6,9.3,28.9,14.3V51.1L258.5,51.1z"/>
	</g>
	<g>
		<path class="st14" d="M185.5,258.1c34.4-11.8,50.3-39.8,59.3-55.5c0.9-1.6,1.7-3,2.5-4.3c1.7-2.9,3.1-6.3,4-10.3
			c2.1-0.9,4-2,5.7-3.5v73.5H185.5z"/>
		<path d="M255.5,187.6V212v44.6h-20h-10.1h-32c30-13.4,45-39.6,52.8-53.3c0.9-1.5,1.7-3,2.5-4.3c1.7-2.8,3-6.2,4-9.9
			C253.6,188.7,254.6,188.2,255.5,187.6 M258.5,180.7c-2.1,2.9-4.9,4.9-8.5,6.2c-0.9,4.1-2.3,7.7-4,10.6c-0.8,1.3-1.6,2.8-2.5,4.3
			c-9.4,16.6-27.8,48.7-68.9,57.7h7.9h1.9h41h10.1h23V212V180.7L258.5,180.7z"/>
	</g>
</g>
</svg>
