<svg xmlns="http://www.w3.org/2000/svg" viewBox="0 0 485.9 209.89"><title>Black</title><path d="M216.74,0V127.44H344.17V0Zm97.67,80-14.5-9.75a33.62,33.62,0,0,0,7.63-22.37L284.68,55l11.86,54.26c-2.69,2.5-16.38,6.63-16.38,6.63l-14-55.14-24.41,7.6c-2.84-3.75-7.59-16.67-7.59-16.67,9.44-3.54,18.64-6.69,27.31-9.47l-6-23.6c5.68-3.94,19.65-7,19.65-7l5.42,24.81c24-6.89,40.55-10.16,40.55-10.16C336.79,53.86,314.41,80,314.41,80Z"/><path d="M358.47,0V127.44H485.9V0Zm97,17.56L461,33.89l-11.33,7.16-8.83-14ZM432.35,30.22l8.5,16.33-11.17,7.67-13-13.83Zm32.79,79.66c-20.41-.34-56.63-36.76-56.63-36.76L386.35,92.39c-6.21-3.59-12-13.75-12-13.75,13.5-13.34,35.5-31.42,35.5-31.42,35,39.5,60.16,45.5,60.16,45.5C470.26,98.47,465.14,109.88,465.14,109.88Z"/><path d="M240,208.54q.66-1.92.66-8.94V185.94q-8.79-18.72-11.22-23.36t-4.11-7.35q-5.3-8.64-6.38-9.92a14,14,0,0,0-2.2-2.12h17.51c.37.66.88,1.63,1.53,2.9l12.28,25.11q.87-2.07,2-4.62,11.07-23,11.23-23.39h16.75q-2.6,2-6.35,8.45a48.45,48.45,0,0,0-2.33,4.38l-11.48,23.14q-1.92,4.17-3.3,7.52v14.1a39.34,39.34,0,0,0,.61,7.76Z"/><path d="M301.72,208.93q-4.37-.39-10.2-.39h-4l22.09-59.89a26.52,26.52,0,0,0,1.47-4.69,3.32,3.32,0,0,0-.05-.82l.05-.09q3.3.13,7,.14,3,0,7.31-.09l.05.09a1.21,1.21,0,0,0-.1.54,22.22,22.22,0,0,0,1.52,5l22.55,60c-.68,0-1.48-.05-2.39-.05l-2.64-.1H334.22l-4.78-14.15H306.49Zm23.76-26.33-7.66-22.85-7.47,22.85Z"/><path d="M413.15,203.87a27.08,27.08,0,0,1-9.68,4.45,57.8,57.8,0,0,1-14.59,1.57,120.22,120.22,0,0,1-18.41-1.52V143.61a114.62,114.62,0,0,1,17.09-1.52,44.48,44.48,0,0,1,11.88,1.32A22.8,22.8,0,0,1,407,147a13.58,13.58,0,0,1,5.79,11.33,14.68,14.68,0,0,1-5.23,11.52,16.87,16.87,0,0,1,9.59,7.07,18.3,18.3,0,0,1,3.1,10.35,25,25,0,0,1-1.7,9.7A16.94,16.94,0,0,1,413.15,203.87ZM383.93,168a34.24,34.24,0,0,0,5.33.34,14.48,14.48,0,0,0,5.25-.81,8.4,8.4,0,0,0,3.18-2,8,8,0,0,0,1.82-5.6q0-7.51-9.14-7.51a57.68,57.68,0,0,0-6.44.29Zm7.51,10.51a46.22,46.22,0,0,0-7.51.54v19.31a30.74,30.74,0,0,0,7.46.89,23.41,23.41,0,0,0,6.88-.91,15.49,15.49,0,0,0,5-2.48,10.08,10.08,0,0,0,4.11-8.26Q407.38,178.54,391.44,178.54Z"/><path d="M478.11,196.87a11.2,11.2,0,0,0,4.37-.59l.2.05-.5,12.33h-38V143c.91.07,1.92.12,3,.15l3.56.1c2.37.06,4.94.1,7.71.1q11.64,0,23-.4a95.2,95.2,0,0,0-.55,11.55,5,5,0,0,0,.1,1.18l-.1.15a29.1,29.1,0,0,0-7.52-.74h-16v12.53h12a40,40,0,0,0,6.7-.3l.16,12.14c-1.63-.16-3.73-.25-6.3-.25H457.4v17.69Z"/><path d="M181.88,147.58c.91-1.6,1.76-3.08,2.55-4.42a32.34,32.34,0,0,0,3.65-10.46l.38-2,2-.51a11.61,11.61,0,0,0,8.33-7c2.31-5.41,1.78-12.73.29-19.46-2.7-3.73-4.64-6.78-4.64-6.78-3.35,6-11.77,8.82-11.77,8.82-1.07-25.4-14.16-36.09-14.16-36.09,2,5.35-1.34,25.66-1.34,25.66A55.21,55.21,0,0,1,161,89a24.14,24.14,0,0,1,2.89,12.16,32.3,32.3,0,0,1-5.2,16.63c-8.86,14-25.92,20.14-38.09,13.74-9.81-5.17-13.44-16.9-9.86-28.59a34.81,34.81,0,0,1,3.86-8.35c8.86-14,25.92-20.14,38.09-13.74a20.48,20.48,0,0,1,3,2c-4.85-5.81-10.3-12.57-14.65-18-4.73-5.94-8.17-10.37-8.17-10.37-3.26,3.41-6.81,7.64-10.06,11.75-6.34,8-11.59,15.52-11.59,15.52-.66-3.95-2.58-8.88-4.61-13.33-2.92-6.4-6.08-11.8-6.08-11.8-1.9,3.1-4.57,8.19-7.32,13.65C87.47,81.74,81.33,94.94,81.33,94.94a210.73,210.73,0,0,1-9-23c-2.9-8.56-4.85-15.38-4.85-15.38A124.57,124.57,0,0,0,56,71.39c-1.69,2.51-3.25,4.94-4.6,7.11a21.07,21.07,0,0,1,12.9,2.59c8,4.61,11.79,14.11,10.85,24.39a37.94,37.94,0,0,1-5,15.4C61.51,136,44.77,142.57,32.81,135.67c-7.93-4.58-11.73-14-10.87-24.16a37.89,37.89,0,0,1,5-15.63A36.29,36.29,0,0,1,43.53,80.62,63.89,63.89,0,0,1,41.5,70c-9.35,9.76-28.6,38.22-28.6,38.22.13-4.81,0-12.56,0-12.56a90.55,90.55,0,0,0-7.73,8.68,24.63,24.63,0,0,0,.4,2.91c.19.93.43,1.81.67,2.69,1.49,5.37,3,10.92-4.48,24.93-2.91,5.42-3,19.53,5.88,33.92,7,11.41,20.26,29.06,56.81,34.36.6-2.83,5.06-26.17-6.34-53.73a4,4,0,0,1,3.42-2.25c4.44-.4,13.21.63,17.93-1.25,8-3.21,28.6-11.9,29.94-11.77s9.36-.4,12.56,4c3,4.12-1.44,47.86,2.42,60.8C155.84,187.71,173.33,162.6,181.88,147.58Zm-143.65,4.1c-.8,0-6-4.21-6-4.21s-.95,4.71-1.5,5.11S24.19,149,24.19,149s-2.15,6.23-3.41,6.68-1.85-6.77-5.71-8.82c-1.37-.73,2.91-2.46,4.31-1.3a14.68,14.68,0,0,0,2.34,1.63,14.34,14.34,0,0,0,2.65-1.68c.68-.63,4.33,2.85,4.33,2.85s2.56-5.16,3.61-5.11,7,5.66,7.12,6.72S39,151.63,38.23,151.68ZM157,143.46c-.8.67-6.82-1.07-7.22-7.75-.13-2.27,5.75,2.54,6.55,1.74s1-4.08,2.19-4.42,4.1,2.68,4.1,2.68,4-3.94,6.28-4.15,5.54,7.16,5.61,8.29-7.89-4.94-7.89-4.94-2.13,7.28-2.67,7.35-3.25-4.81-5.43-4.81S157.78,142.79,157,143.46Z"/><path d="M118.32,165.23c-4-1.5-17.83-3.88-28.77-1.82-10.26,1.93-17.2,10.41-19.7,12.69.78,7.63,1.66,14.73,1.46,16.41-.4,3.23-2.78,9.26-3.5,11a174,174,0,0,0,25.45,1,101.45,101.45,0,0,0,25.62-3.9C118.87,194.88,118.8,179.3,118.32,165.23Z"/><path d="M143,0a57,57,0,0,0-6.3,6c42.51,5.88,56.92,28.16,56.92,28.16-4.54,1.6-20,4-20,4,5.21.81,21.62,9.33,28.89,14.29V0H143Z"/><path d="M194,135.81a37.21,37.21,0,0,1-4,10.62c-.77,1.31-1.6,2.76-2.5,4.33-9.44,16.57-27.78,48.75-68.93,57.73h83.92V129.6A17.53,17.53,0,0,1,194,135.81Z"/></svg>