<svg xmlns="http://www.w3.org/2000/svg" width="187.855" height="80.9" viewBox="0 0 187.855 80.9"><g transform="translate(83.769)"><path d="M274.3,100.585V52.6h48.1v47.946H274.3Zm23.508-3.16.58-.193c.541-.154,5.452-1.657,6.573-2.7l.232-.231-4.524-20.736,7.578-2.351a12.591,12.591,0,0,1-2.823,7.477l-.425.5,6.573,4.394.348-.385c.077-.116,8.854-10.522,2.668-21.391l-.193-.347-.425.077c-.077,0-6.264,1.233-15.118,3.739l-2.088-9.52-.58.116c-.232.039-5.529,1.233-7.81,2.775l-.348.231,2.281,8.942c-3.441,1.118-6.844,2.274-10.053,3.507l-.541.193.193.54c.077.193,1.895,5.088,3.016,6.591l.232.308,9.241-2.852Z" transform="translate(-273.72 -52.022)" fill="#fffcf2"/><path d="M320.9,52.256v46.79H273.96V52.256H320.9M288.73,66.594c-3.286,1.079-6.5,2.2-9.589,3.353l-1.083.385.387,1.079c.193.54,1.933,5.165,3.093,6.706l.5.655.773-.231,8.274-2.582,5.1,20.08L296.5,97.2l1.16-.347c1.315-.385,5.645-1.734,6.805-2.814l.5-.463-.155-.655-4.369-19.888,6.264-1.927a11.582,11.582,0,0,1-2.629,6.282l-.812,1,1.083.732,5.606,3.777.851.578.657-.771A24.614,24.614,0,0,0,315.254,76a17.761,17.761,0,0,0-1.044-15.3l-.425-.732-.812.154c-.077,0-5.993,1.195-14.577,3.584l-1.817-8.364-.232-1.118-1.121.231c-.232.039-5.645,1.233-8,2.891l-.657.463.193.771,1.972,8.017M322.059,51.1H272.8v49.1h49.259V51.1ZM282.466,77.463c-1.083-1.465-2.939-6.437-2.939-6.437,3.635-1.349,7.192-2.582,10.556-3.662l-2.32-9.1c2.2-1.5,7.617-2.7,7.617-2.7l2.088,9.558c9.28-2.659,15.659-3.931,15.659-3.931,6.032,10.638-2.629,20.736-2.629,20.736l-5.606-3.777a12.973,12.973,0,0,0,2.939-8.633l-8.854,2.736,4.6,20.928c-1.044.964-6.341,2.544-6.341,2.544L291.823,74.5l-9.357,2.968Z" transform="translate(-272.8 -51.1)" fill="#fffcf2"/></g><g transform="translate(138.557)"><path d="M416,100.585V52.6h48.1v47.946H416Zm18.752-19.579c2.359,2.313,14.538,13.837,21.923,13.952h.387l.155-.347c.077-.193,2.049-4.548,1.933-6.861v-.424l-.425-.116c-.077-.039-9.744-2.467-22.967-17.344l-.387-.424-.425.347c-.077.077-8.584,7.053-13.765,12.141l-.309.308.232.385c.077.154,2.359,4.085,4.872,5.512l.348.193Zm2.281-13.528,5.838,6.205,5.142-3.507-3.828-7.323Zm9.434-5.2,4.021,6.359,5.258-3.315-2.513-7.439Z" transform="translate(-415.42 -52.022)" fill="#fffcf2"/><path d="M462.638,52.256v46.79H415.66V52.256h46.978M449.414,68.521l.967-.617,4.369-2.775.773-.5-.309-.848L453.088,57.5l-.464-1.426-1.237.809L445.7,60.543l-.967.617.619.964,3.4,5.4.657,1m-7.54,5.01.812-.578,4.331-2.968.851-.578-.464-.925-3.287-6.244-.58-1.118-1.083.694-6.07,3.893-1.16.771.967,1,5.026,5.319.657.732M425.4,88.139l.619-.54,7.772-6.706c3.093,3.006,14.654,13.644,21.923,13.76h.773l.309-.694c.232-.463,2.088-4.7,1.972-7.13l-.039-.848-.851-.193c-.077-.039-9.589-2.467-22.658-17.19l-.735-.848-.851.655c-.077.077-8.622,7.053-13.8,12.179l-.619.617.425.771c.116.154,2.436,4.2,5.065,5.743l.7.424M463.8,51.1H414.5v49.1h49.3V51.1ZM449.762,66.941l-3.4-5.4,5.684-3.662,2.127,6.282-4.408,2.775Zm-7.733,5.088L437,66.71l6.07-3.931,3.286,6.282-4.33,2.968ZM425.287,86.713c-2.4-1.388-4.64-5.319-4.64-5.319,5.22-5.126,13.726-12.1,13.726-12.1,13.533,15.224,23.276,17.537,23.276,17.537.116,2.235-1.895,6.629-1.895,6.629-7.888-.116-21.884-14.184-21.884-14.184l-8.584,7.439Z" transform="translate(-414.5 -51.1)" fill="#fffcf2"/></g><g transform="translate(83.769 54.768)"><path d="M281.77,219.568a14.416,14.416,0,0,0,.271-3.43v-5.28c-2.281-4.818-3.712-7.824-4.33-9.019s-1.16-2.12-1.585-2.814a34.778,34.778,0,0,0-2.475-3.816,4.118,4.118,0,0,0-.851-.809h6.766c.155.27.348.617.58,1.118l4.756,9.674c.232-.54.5-1.118.773-1.773,2.861-5.935,4.292-8.942,4.33-9.019h6.5a12.142,12.142,0,0,0-2.436,3.276,11.54,11.54,0,0,0-.889,1.7l-4.446,8.865q-.754,1.619-1.276,2.891v5.434a15.258,15.258,0,0,0,.232,3.006Z" transform="translate(-272.8 -193.938)" fill="#fffcf2"/><path d="M349.09,219.6c-1.121-.116-2.436-.154-3.944-.154H343.6l8.545-23.087a10.568,10.568,0,0,0,.58-1.811c0-.154,0-.27-.039-.308l.039-.039c.851.039,1.74.039,2.707.039.773,0,1.74,0,2.823-.039l.039.039a.288.288,0,0,0-.039.193,8.812,8.812,0,0,0,.58,1.927l8.7,23.125h-.928l-1.005-.039h-3.944l-1.856-5.473h-8.893Zm9.164-10.175-2.977-8.788-2.9,8.788Z" transform="translate(-316.225 -193.815)" fill="#fffcf2"/><path d="M443.01,217.019a10.23,10.23,0,0,1-3.75,1.7,23.348,23.348,0,0,1-5.645.617,46.906,46.906,0,0,1-7.114-.578V193.778a45.168,45.168,0,0,1,6.612-.578,17.074,17.074,0,0,1,4.6.5,9.044,9.044,0,0,1,2.939,1.388,5.182,5.182,0,0,1,2.243,4.355,5.588,5.588,0,0,1-2.011,4.432,6.5,6.5,0,0,1,3.712,2.737,6.949,6.949,0,0,1,1.2,3.97,9.8,9.8,0,0,1-.657,3.739A6.568,6.568,0,0,1,443.01,217.019Zm-11.29-13.8a15.1,15.1,0,0,0,2.049.116,6.2,6.2,0,0,0,2.049-.308,3.235,3.235,0,0,0,1.237-.771,3.085,3.085,0,0,0,.7-2.158c0-1.927-1.16-2.891-3.519-2.891a21.718,21.718,0,0,0-2.475.116v5.9Zm2.9,4.047a21.485,21.485,0,0,0-2.9.193V214.9a11.949,11.949,0,0,0,2.9.347,9.326,9.326,0,0,0,2.668-.347,5.678,5.678,0,0,0,1.933-.964,3.938,3.938,0,0,0,1.585-3.2C440.767,208.424,438.718,207.268,434.62,207.268Z" transform="translate(-367.072 -193.2)" fill="#fffcf2"/><path d="M513.407,214.751a4.308,4.308,0,0,0,1.7-.231h.077l-.193,4.741H500.3V193.939a10.908,10.908,0,0,0,1.16.039l1.392.039c.928.039,1.895.039,2.977.039,3.016,0,5.954-.039,8.893-.154a33.622,33.622,0,0,0-.232,4.432,1.582,1.582,0,0,0,.039.463l-.039.039a11.518,11.518,0,0,0-2.9-.27H505.4v4.818h4.64a15.5,15.5,0,0,0,2.59-.116l.077,4.664a21.884,21.884,0,0,0-2.436-.077H505.4v6.9Z" transform="translate(-412.337 -193.63)" fill="#fffcf2"/></g><g transform="translate(0 21.005)"><path d="M81.459,163.632c-12.759-2-17.94-7.94-21-12.873-3.286-5.28-3.286-10.6-2.243-12.488,3.016-5.589,2.4-7.863,1.779-10.021a9.627,9.627,0,0,1-.271-1q-.058-.347-.116-.809c.657-.809,1.276-1.5,1.817-2.12v3.43l-.039,1.966,1.121-1.657c.077-.116,6.418-9.443,10.169-13.76.116.694.271,1.58.5,2.467a14.511,14.511,0,0,0-6.225,5.9,15.4,15.4,0,0,0-2.011,6.244c-.348,4.278,1.353,8.055,4.485,9.867a8.728,8.728,0,0,0,4.33,1.118c4.176,0,8.468-2.775,10.942-7.053a15.062,15.062,0,0,0,2.011-6.167c.387-4.317-1.315-8.132-4.485-9.944a8.261,8.261,0,0,0-4.176-1.118c.387-.617.773-1.233,1.16-1.773a46.489,46.489,0,0,1,3.673-4.856c.309,1.079.889,2.891,1.585,4.972a85.349,85.349,0,0,0,3.519,8.942l.541,1.079.5-1.118c.039-.039,2.4-5.126,4.6-9.52.928-1.85,1.7-3.315,2.281-4.355.464.848,1.16,2.158,1.817,3.623a20.946,20.946,0,0,1,1.74,5.01L99.709,119l.812-1.156c.039-.039,2.049-2.929,4.446-5.935,1.276-1.58,2.4-2.929,3.4-4.008.541.694,1.547,1.966,2.745,3.469,1.044,1.31,2.436,3.045,3.828,4.741a9.44,9.44,0,0,0-2.977-.463,13.715,13.715,0,0,0-11.1,6.552,13.863,13.863,0,0,0-1.547,3.353c-1.508,4.933.116,9.636,4.1,11.717a9.252,9.252,0,0,0,4.369,1.041,13.715,13.715,0,0,0,11.1-6.552,12.876,12.876,0,0,0,2.088-6.706,10.468,10.468,0,0,0-.193-2.235,5.016,5.016,0,0,0,.541.462l.773.578.155-.925a53.707,53.707,0,0,0,.773-8.248c1.469,1.85,3.789,5.781,4.1,12.218l.039.771.735-.231a10.885,10.885,0,0,0,4.369-2.891c.309.463.735,1.079,1.276,1.811.657,2.929.619,5.4-.116,7.053a3.819,3.819,0,0,1-2.823,2.351l-1.121.27-.232,1.118a11.842,11.842,0,0,1-1.353,3.854c-.309.5-.619,1.041-.967,1.657l-.039.077c-5.452,9.558-12.643,16.034-21.3,19.31-.619-2.852-.5-8.364-.387-13.3.116-5.781.155-8.826-.464-9.713-1.237-1.7-3.944-1.734-4.988-1.773h-.387c-.5,0-2.668.848-8.584,3.276-1.237.5-2.359.964-3.171,1.31a10.587,10.587,0,0,1-3.634.424H82.078a10.96,10.96,0,0,0-1.237.039,2.132,2.132,0,0,0-1.817,1.233l-.077.231.077.231A36.808,36.808,0,0,1,81.459,163.632ZM63.944,141.393c-.541,0-1.624.27-1.779.925a.723.723,0,0,0,.387.809,4.326,4.326,0,0,1,1.392,2.2c.271.732.5,1.31,1.083,1.31h0a.492.492,0,0,0,.232-.039c.155-.077.657-.231,1.431-2.235,1.7,1.079,2.049,1.079,2.165,1.079h0a.761.761,0,0,0,.387-.116c.116-.077.309-.231.619-1.388,1.508,1.156,1.779,1.156,1.972,1.156h.039a1.152,1.152,0,0,0,.773-.385,1.034,1.034,0,0,0,.232-.925c-.116-.694-2.629-3.045-3.287-3.083h0c-.271,0-.7.039-1.585,1.619-.928-.771-1.276-.771-1.431-.771a.641.641,0,0,0-.464.193,2.493,2.493,0,0,1-.619.424,2.329,2.329,0,0,1-.541-.424A1.592,1.592,0,0,0,63.944,141.393ZM115.1,137.5a.788.788,0,0,0-.58.231.7.7,0,0,0-.193.617,3.647,3.647,0,0,0,3.171,3.584.952.952,0,0,0,.58-.193c.348-.27.309-.732.309-1.31a5.411,5.411,0,0,1,.039-.809,4.9,4.9,0,0,1,1.083,1.118c.387.462.58.694.928.694h.077c.348-.039.541-.077,1.276-2.428,2.127,1.58,2.513,1.58,2.668,1.58h0a.641.641,0,0,0,.464-.193.529.529,0,0,0,.155-.463c-.039-.424-1.315-3.739-2.707-3.739h-.077a5.117,5.117,0,0,0-2.359,1.388,2.921,2.921,0,0,0-1.508-.809.492.492,0,0,0-.232.039c-.58.154-.773.809-.928,1.349a2.455,2.455,0,0,0-.077.27l-.541-.27A3.572,3.572,0,0,0,115.1,137.5Z" transform="translate(-57.04 -107.014)" fill="#fffcf2"/><path d="M107.436,107.373c.58.732,1.392,1.734,2.32,2.929.967,1.233,1.895,2.39,2.784,3.43a9.076,9.076,0,0,0-1.469-.116,14.274,14.274,0,0,0-11.6,6.822,15.183,15.183,0,0,0-1.624,3.507c-1.392,4.471-.271,8.826,2.784,11.331-.773-.116-1.431-.116-1.856-.154h-.387c-.541,0-1.7.424-8.816,3.315-1.237.5-2.359.964-3.171,1.272a10.336,10.336,0,0,1-3.4.385H81.105a12.509,12.509,0,0,0-1.315.039,2.653,2.653,0,0,0-2.281,1.58l-.193.424.193.424A36.97,36.97,0,0,1,80.1,161.525C68,159.482,63.049,153.778,60.071,149c-3.171-5.088-3.209-10.137-2.243-11.91,1.817-3.392,2.359-5.627,2.359-7.362l1.895-2.814c.039-.039.889-1.31,2.165-3.122a15.087,15.087,0,0,0-.773,3.662c-.387,4.509,1.431,8.479,4.794,10.406a9.006,9.006,0,0,0,4.6,1.195c4.369,0,8.854-2.891,11.445-7.323a16.2,16.2,0,0,0,2.088-6.4,12.6,12.6,0,0,0-.7-5.589c.309.694.58,1.349.889,1.927l1.083,2.2,1.044-2.2c.039-.039,2.4-5.126,4.6-9.481.7-1.349,1.276-2.505,1.779-3.392.387.732.851,1.657,1.315,2.659a20.369,20.369,0,0,1,1.7,4.856l.464,2.814,1.624-2.313c.039-.039,2.049-2.891,4.446-5.936a28.592,28.592,0,0,1,2.784-3.507M66.876,140.018a1.931,1.931,0,0,0-1.237-.5,1.293,1.293,0,0,0-.889.347c-.039.039-.116.077-.193.154-.077-.039-.155-.116-.232-.154a2.032,2.032,0,0,0-1.276-.424c-.773,0-2.127.385-2.359,1.349a1.27,1.27,0,0,0,.7,1.465c.5.27.851,1.233,1.121,1.889.309.771.619,1.657,1.624,1.657a1.393,1.393,0,0,0,.425-.077c.271-.116.773-.27,1.508-1.927,1.353.809,1.663.809,1.895.809a1.276,1.276,0,0,0,.735-.231c.193-.116.348-.27.58-.925,1.083.771,1.353.771,1.624.771h.077a1.776,1.776,0,0,0,1.2-.578,1.73,1.73,0,0,0,.348-1.388c-.039-.27-.116-.694-1.585-2.12-1.508-1.426-1.972-1.465-2.243-1.465h-.077c-.464,0-.967.116-1.74,1.349M81.685,108.76c.309,1.041.773,2.428,1.276,3.97.812,2.39,1.585,4.509,2.359,6.282a8.857,8.857,0,0,0-3.75-4.124,9.33,9.33,0,0,0-3.441-1.156c.232-.308.425-.655.619-.964,1.044-1.542,2.011-2.891,2.939-4.008M71.4,114.195a6.694,6.694,0,0,0,.193.848,14.233,14.233,0,0,0-1.74,1.079c.541-.694,1.044-1.349,1.547-1.927m51.231.809a21.467,21.467,0,0,1,2.939,10.406l.077,1.542,1.469-.5a11.333,11.333,0,0,0,4.1-2.505c.232.347.5.694.773,1.118.58,2.775.541,5.049-.077,6.552a3.369,3.369,0,0,1-2.436,2.043l-.773.193-.7.193-.155.732-.155.771a11,11,0,0,1-1.276,3.662c-.309.5-.619,1.079-.967,1.657l-.039.077c-5.258,9.212-12.1,15.533-20.376,18.809-.464-2.968-.348-8.209-.271-12.526.116-6.668.116-9.1-.58-10.06l-.039-.039a10.207,10.207,0,0,0,2.707.347,14.274,14.274,0,0,0,11.6-6.822,13.607,13.607,0,0,0,2.2-7.015,7.4,7.4,0,0,0-.039-.925l.928.694.309-1.85a64.041,64.041,0,0,0,.773-6.552M119,135.355a2.555,2.555,0,0,0-1.508-.655,1.319,1.319,0,0,0-.387.039,1.826,1.826,0,0,0-1.2,1.349,3.914,3.914,0,0,0-1.663-.578,1.406,1.406,0,0,0-1.005.424,1.278,1.278,0,0,0-.348,1.041,4.18,4.18,0,0,0,3.75,4.124,1.607,1.607,0,0,0,.967-.308,1.424,1.424,0,0,0,.5-1.195c.039.039.039.039.039.077.425.5.735.925,1.353.925h.155c.657-.077.967-.385,1.508-2.081,1.7,1.195,2.088,1.233,2.359,1.233a1.121,1.121,0,0,0,.889-.385,1.1,1.1,0,0,0,.309-.886c-.039-.578-1.392-4.278-3.286-4.278h-.155A4.606,4.606,0,0,0,119,135.355M59.955,124.37c0,.655,0,1.31-.039,1.889l-.039,1.349a7.015,7.015,0,0,0-.271-.964v-.039l-.232-.925a2.268,2.268,0,0,1-.077-.54c.232-.27.464-.5.657-.771m47.558-18.77c-1.276,1.31-2.629,2.929-3.905,4.509-2.436,3.083-4.485,5.974-4.485,5.974a23.858,23.858,0,0,0-1.779-5.126c-1.121-2.467-2.359-4.548-2.359-4.548-.735,1.195-1.779,3.16-2.823,5.28-2.243,4.432-4.6,9.52-4.6,9.52a78.276,78.276,0,0,1-3.48-8.865c-1.121-3.315-1.895-5.936-1.895-5.936a45.437,45.437,0,0,0-4.408,5.7c-.657.964-1.237,1.889-1.779,2.736a8.8,8.8,0,0,1,4.988,1c3.093,1.773,4.562,5.434,4.214,9.4a14.68,14.68,0,0,1-1.933,5.936c-2.475,4.24-6.573,6.745-10.439,6.745A8.122,8.122,0,0,1,68.81,136.9c-3.055-1.773-4.524-5.4-4.214-9.327a14.724,14.724,0,0,1,8.352-11.91,25.263,25.263,0,0,1-.773-4.124c-3.635,3.777-11.058,14.723-11.058,14.723.039-1.85,0-4.856,0-4.856a29.9,29.9,0,0,0-2.977,3.353,9.742,9.742,0,0,0,.155,1.118,10.3,10.3,0,0,0,.271,1.041c.58,2.081,1.16,4.2-1.74,9.6-1.121,2.081-1.16,7.516,2.281,13.066,2.707,4.394,7.849,11.216,21.962,13.258a36.9,36.9,0,0,0-2.436-20.7,1.6,1.6,0,0,1,1.315-.886,11.3,11.3,0,0,1,1.2-.039h1.895a11.581,11.581,0,0,0,3.828-.463c3.093-1.233,10.942-4.548,11.561-4.548h0c.5.039,3.634-.154,4.872,1.542,1.16,1.58-.541,18.462.928,23.434,12.179-4.317,18.907-13.991,22.232-19.772.348-.617.7-1.195.967-1.7a13.05,13.05,0,0,0,1.431-4.047l.155-.771.773-.193a4.4,4.4,0,0,0,3.209-2.7c.889-2.081.7-4.895.116-7.516-1.044-1.426-1.779-2.621-1.779-2.621-1.276,2.313-4.562,3.392-4.562,3.392-.425-9.79-5.49-13.914-5.49-13.914.773,2.043-.5,9.905-.5,9.905a20.791,20.791,0,0,1-2.359-2.428,9.109,9.109,0,0,1,1.121,4.7,12.523,12.523,0,0,1-2.011,6.4,13.11,13.11,0,0,1-10.633,6.282,8.9,8.9,0,0,1-4.1-.964c-3.789-2-5.181-6.514-3.828-11.023a13.526,13.526,0,0,1,1.508-3.238,13.11,13.11,0,0,1,10.633-6.282,8.9,8.9,0,0,1,4.1.964,6.062,6.062,0,0,1,1.16.771c-1.895-2.235-3.982-4.856-5.684-6.976-1.856-2.158-3.171-3.854-3.171-3.854Zm11.445,31.3s1.547-1.5,2.436-1.58h.039c.889,0,2.127,2.775,2.127,3.2,0,.039,0,.039-.039.039a18.048,18.048,0,0,1-2.977-1.966,15.055,15.055,0,0,1-1.044,2.852h0c-.232,0-1.276-1.85-2.088-1.85-.851,0-.271,2.043-.58,2.313-.039.039-.116.039-.232.039a3.1,3.1,0,0,1-2.591-3.045c0-.154.077-.231.193-.231.5,0,1.779.925,2.243.925a.142.142,0,0,0,.116-.039c.309-.308.387-1.58.851-1.7h.077c.5,0,1.469,1.041,1.469,1.041Zm-51.734,4.895s.967-1.966,1.392-1.966h0a9.245,9.245,0,0,1,2.745,2.582c.077.424-.155.655-.464.655h0a15.035,15.035,0,0,1-2.32-1.619A9.846,9.846,0,0,1,68,143.41h-.039a14.111,14.111,0,0,1-2.475-1.388s-.851,2.39-1.315,2.582h-.039c-.464,0-.735-2.621-2.165-3.392-.387-.231.464-.655,1.121-.655a.89.89,0,0,1,.541.154,4.16,4.16,0,0,0,.889.617,5,5,0,0,0,1.005-.655c.039-.039.039-.039.077-.039.425.039,1.624,1.156,1.624,1.156Z" transform="translate(-56.145 -105.6)" fill="#fffcf2"/></g><g transform="translate(26.197 62.67)"><path d="M132.782,230.27a65.243,65.243,0,0,1-6.882-.347,20.138,20.138,0,0,0,1.121-3.7,28.95,28.95,0,0,0-.348-4.355c-.077-.578-.116-1.195-.193-1.811l.348-.347c1.237-1.272,3.557-3.584,6.766-4.2a19.716,19.716,0,0,1,3.557-.308,27.425,27.425,0,0,1,6.882.848c.155,4.972.193,10.329.193,12.8a39.158,39.158,0,0,1-9.357,1.349,18.564,18.564,0,0,1-2.088.077Z" transform="translate(-125.127 -214.622)" fill="#fffcf2"/><path d="M135.963,214.856a27.656,27.656,0,0,1,6.3.732c.155,4.548.193,9.366.193,11.91a38.566,38.566,0,0,1-8.777,1.233c-.735,0-1.431.039-2.127.039-2.088,0-4.137-.077-6.07-.27a16.9,16.9,0,0,0,.889-3.122,31.767,31.767,0,0,0-.348-4.509c-.039-.5-.116-1-.155-1.542l.155-.154c1.2-1.195,3.441-3.469,6.457-4.047a23.633,23.633,0,0,1,3.48-.27m0-1.156a19.156,19.156,0,0,0-3.673.308c-3.982.732-6.65,4.008-7.617,4.895.309,2.929.657,5.666.58,6.321a22.941,22.941,0,0,1-1.353,4.24,66.541,66.541,0,0,0,7.694.424c.7,0,1.431,0,2.165-.039a40.7,40.7,0,0,0,9.9-1.5c0-2.235-.039-8.248-.232-13.682a29.448,29.448,0,0,0-7.462-.964Z" transform="translate(-123.9 -213.7)" fill="#fffcf2"/></g><g transform="translate(52.799)"><path d="M219.524,71.239A60.448,60.448,0,0,0,211.366,67a50.483,50.483,0,0,0,5.529-1.195l.7-.231-.387-.617c-.232-.347-5.645-8.441-21.3-10.946.387-.385.889-.848,1.431-1.31h22.194Z" transform="translate(-194.663 -52.083)" fill="#fffcf2"/><path d="M216.982,52.256V69.215a55.5,55.5,0,0,0-5.645-2.968,30.417,30.417,0,0,0,3.75-.886l1.392-.5-.812-1.233c-.232-.347-5.529-8.248-20.531-11.023a4.107,4.107,0,0,1,.425-.347h21.42m1.16-1.156H195.136a21.416,21.416,0,0,0-2.436,2.313c16.433,2.274,22,10.869,22,10.869a76.016,76.016,0,0,1-7.733,1.542c2.011.308,8.352,3.584,11.174,5.512V51.1Z" transform="translate(-192.7 -51.1)" fill="#fffcf2"/></g><g transform="translate(45.8 49.951)"><path d="M185.5,212.867c13.3-4.548,19.448-15.34,22.928-21.391.348-.617.657-1.156.967-1.657a13.734,13.734,0,0,0,1.547-3.97,8.06,8.06,0,0,0,2.2-1.349v28.328H185.5Z" transform="translate(-181.286 -183.035)" fill="#fffcf2"/><path d="M205.88,183.359v26.594H181.869c11.6-5.165,17.4-15.263,20.415-20.543.348-.578.657-1.156.967-1.657a14.871,14.871,0,0,0,1.547-3.816,7.388,7.388,0,0,0,1.083-.578m1.16-2.659a6.709,6.709,0,0,1-3.287,2.39,14.083,14.083,0,0,1-1.547,4.085c-.309.5-.619,1.079-.967,1.657-3.634,6.4-10.749,18.77-26.64,22.239h32.44V180.7Z" transform="translate(-174.6 -180.7)" fill="#fffcf2"/></g></svg>