<svg xmlns="http://www.w3.org/2000/svg" viewBox="0 0 485.9 209.89"><defs><style>.a{fill:#fff;}</style></defs><title>logo-light</title><path class="a" d="M218.24,125.94V1.5H342.67V125.94Zm60.85-8.19,1.5-.45c1.44-.44,14.11-4.31,17-7l.62-.58L286.44,56l19.61-6.11a32.55,32.55,0,0,1-7.29,19.38l-1.07,1.28,17,11.42.87-1c.23-.27,22.88-27.25,6.92-55.46l-.54-.95-1.06.21c-.16,0-16.15,3.22-39.13,9.74l-5.4-24.71-1.47.32c-.58.13-14.32,3.18-20.19,7.23l-.85.6,5.88,23.24c-8.92,2.88-17.67,5.93-26,9.07l-1.4.52.52,1.4c.19.53,4.86,13.17,7.79,17l.63.84,23.92-7.44Z"/><path class="a" d="M341.17,3V124.44H219.74V3H341.17M257.91,40.19c-8.48,2.76-16.8,5.66-24.76,8.65l-2.79,1,1,2.8c.5,1.36,5,13.45,8,17.44l1.27,1.68,2-.63,21.39-6.65,13.18,52.07.77,3,3-.91c3.36-1,14.58-4.54,17.55-7.3l1.25-1.16-.36-1.68L288.2,57,304.41,52a30.56,30.56,0,0,1-6.8,16.34l-2.14,2.55,2.77,1.86,14.5,9.75L315,84l1.74-2a61.64,61.64,0,0,0,9.77-17.44c5.08-13.92,4.15-27.66-2.69-39.74l-1.06-1.89-2.13.42c-.16,0-15.51,3.09-37.72,9.34l-4.74-21.69L277.48,8l-2.93.65c-.59.13-14.62,3.24-20.72,7.46l-1.71,1.19.51,2,5.28,20.88M344.17,0H216.74V127.44H344.17V0ZM241.79,68.32c-2.84-3.75-7.59-16.67-7.59-16.67,9.44-3.54,18.64-6.69,27.31-9.47l-6-23.6c5.68-3.94,19.65-7,19.65-7l5.42,24.81c24-6.89,40.55-10.16,40.55-10.16C336.79,53.86,314.41,80,314.41,80l-14.5-9.75a33.62,33.62,0,0,0,7.63-22.37L284.68,55l11.86,54.26c-2.69,2.5-16.38,6.63-16.38,6.63l-14-55.14-24.41,7.6Z"/><path class="a" d="M360,125.94V1.5H484.4V125.94Zm48.48-50.77c6.11,6,37.56,35.89,56.67,36.21h1l.4-.9c.22-.48,5.26-11.8,5-17.84l-.05-1.13-1.1-.26c-.24-.06-25.2-6.45-59.39-45l-1-1.08-1.12.92c-.22.18-22.2,18.28-35.6,31.51l-.82.81.57,1c.25.43,6.07,10.56,12.56,14.3l.92.54Zm5.91-35.07,15.11,16.08L442.79,47l-9.88-19Zm24.43-13.5,10.42,16.52,13.6-8.6-6.49-19.27Z"/><path class="a" d="M482.9,3V124.44H361.47V3H482.9M448.74,45.19l2.54-1.6,11.34-7.17,2-1.26-.75-2.23-5.5-16.33L457.12,13,453.88,15l-14.66,9.49-2.49,1.61,1.58,2.51,8.83,14,1.6,2.54m-19.48,13,2.12-1.46L442.54,49l2.19-1.51-1.22-2.35L435,28.83l-1.53-2.93-2.77,1.8L415.05,37.87l-3,2,2.46,2.62,13,13.83,1.77,1.88M386.7,96.05l1.61-1.4L408.39,77.2c8.05,7.77,37.93,35.37,56.7,35.67l2,0,.81-1.81c.55-1.23,5.4-12.23,5.13-18.51l-.11-2.25-2.18-.54c-.25-.06-24.84-6.44-58.63-44.57l-1.92-2.16-2.23,1.83c-.22.18-22.26,18.32-35.7,31.6l-1.64,1.62,1.14,2C372,80.56,378,91,384.85,95l1.85,1.07M485.9,0H358.47V127.44H485.9V0ZM449.68,41.05l-8.83-14,14.66-9.49L461,33.89l-11.33,7.16Zm-20,13.17-13-13.83,15.67-10.17,8.5,16.33-11.17,7.67ZM386.35,92.39c-6.21-3.59-12-13.75-12-13.75,13.5-13.34,35.5-31.42,35.5-31.42,35,39.5,60.16,45.5,60.16,45.5.25,5.75-4.87,17.16-4.87,17.16-20.41-.34-56.63-36.76-56.63-36.76L386.35,92.39Z"/><path class="a" d="M240,208.54q.66-1.92.66-8.94V185.94q-8.79-18.72-11.22-23.36t-4.11-7.35q-5.3-8.64-6.38-9.92a14,14,0,0,0-2.2-2.12h17.51c.37.66.88,1.63,1.53,2.9l12.28,25.11q.87-2.07,2-4.62,11.07-23,11.23-23.39h16.75q-2.6,2-6.35,8.45a48.45,48.45,0,0,0-2.33,4.38l-11.48,23.14q-1.92,4.17-3.3,7.52v14.1a39.34,39.34,0,0,0,.61,7.76Z"/><path class="a" d="M301.72,208.93q-4.37-.39-10.2-.39h-4l22.09-59.89a26.52,26.52,0,0,0,1.47-4.69,3.32,3.32,0,0,0-.05-.82l.05-.09q3.3.13,7,.14,3,0,7.31-.09l.05.09a1.21,1.21,0,0,0-.1.54,22.22,22.22,0,0,0,1.52,5l22.55,60c-.68,0-1.48-.05-2.39-.05l-2.64-.1H334.22l-4.78-14.15H306.49Zm23.76-26.33-7.66-22.85-7.47,22.85Z"/><path class="a" d="M413.15,203.87a27.08,27.08,0,0,1-9.68,4.45,57.8,57.8,0,0,1-14.59,1.57,120.22,120.22,0,0,1-18.41-1.52V143.61a114.62,114.62,0,0,1,17.09-1.52,44.48,44.48,0,0,1,11.88,1.32A22.8,22.8,0,0,1,407,147a13.58,13.58,0,0,1,5.79,11.33,14.68,14.68,0,0,1-5.23,11.52,16.87,16.87,0,0,1,9.59,7.07,18.3,18.3,0,0,1,3.1,10.35,25,25,0,0,1-1.7,9.7A16.94,16.94,0,0,1,413.15,203.87ZM383.93,168a34.24,34.24,0,0,0,5.33.34,14.48,14.48,0,0,0,5.25-.81,8.4,8.4,0,0,0,3.18-2,8,8,0,0,0,1.82-5.6q0-7.51-9.14-7.51a57.68,57.68,0,0,0-6.44.29Zm7.51,10.51a46.22,46.22,0,0,0-7.51.54v19.31a30.74,30.74,0,0,0,7.46.89,23.41,23.41,0,0,0,6.88-.91,15.49,15.49,0,0,0,5-2.48,10.08,10.08,0,0,0,4.11-8.26Q407.38,178.54,391.44,178.54Z"/><path class="a" d="M478.11,196.87a11.2,11.2,0,0,0,4.37-.59l.2.05-.5,12.33h-38V143c.91.07,1.92.12,3,.15l3.56.1c2.37.06,4.94.1,7.71.1q11.64,0,23-.4a95.2,95.2,0,0,0-.55,11.55,5,5,0,0,0,.1,1.18l-.1.15a29.1,29.1,0,0,0-7.52-.74h-16v12.53h12a40,40,0,0,0,6.7-.3l.16,12.14c-1.63-.16-3.73-.25-6.3-.25H457.4v17.69Z"/><path class="a" d="M63.25,201.4c-33-5.16-46.38-20.55-54.33-33.44C.44,154.22.42,140.49,3.08,135.53c7.79-14.54,6.17-20.39,4.61-26-.26-.94-.48-1.74-.65-2.59a21.1,21.1,0,0,1-.32-2.14c1.69-2.11,3.27-4,4.72-5.52,0,2.65,0,6.24,0,8.89l-.14,5.15L14.14,109c.18-.27,16.59-24.51,26.29-35.66a63.44,63.44,0,0,0,1.31,6.43A38,38,0,0,0,25.63,95.13a39.32,39.32,0,0,0-5.18,16.25C19.51,122.49,24,132.29,32.06,137a22.06,22.06,0,0,0,11.18,2.93c10.77,0,21.86-7.17,28.27-18.27a39.4,39.4,0,0,0,5.16-16c1-11.21-3.42-21.11-11.59-25.83a22,22,0,0,0-10.85-2.92q1.55-2.41,3.05-4.64a134.19,134.19,0,0,1,9.47-12.65c.84,2.77,2.29,7.49,4.11,12.87A208.58,208.58,0,0,0,80,95.6l1.38,2.83,1.33-2.85c.06-.14,6.2-13.32,11.91-24.67,2.41-4.79,4.4-8.58,6-11.31,1.18,2.15,3,5.61,4.74,9.4a55.31,55.31,0,0,1,4.5,13l.61,3.63,2.1-3c0-.08,5.3-7.58,11.53-15.45,3.26-4.11,6.21-7.59,8.79-10.38,1.38,1.77,4,5.06,7.09,9,2.7,3.4,6.28,7.86,9.91,12.31a24.85,24.85,0,0,0-7.72-1.19c-10.94,0-22.22,6.66-28.74,17a36,36,0,0,0-4,8.71c-3.92,12.76.34,25,10.59,30.35a24,24,0,0,0,11.32,2.71c10.93,0,22.21-6.66,28.74-17a33.83,33.83,0,0,0,5.43-17.42,27.42,27.42,0,0,0-.52-5.84,14.89,14.89,0,0,0,1.36,1.17l2,1.46.4-2.42c.27-1.67,2.2-13.68,2-21.41,3.8,4.81,9.85,15,10.55,31.65l.09,2,1.89-.63c.32-.11,7.23-2.46,11.27-7.54.79,1.2,1.92,2.85,3.26,4.7,1.66,7.65,1.57,14-.27,18.26a10.06,10.06,0,0,1-7.33,6.13l-2.89.75-.55,2.93a31.15,31.15,0,0,1-3.47,10c-.77,1.29-1.59,2.73-2.47,4.27l-.09.17c-14.13,24.79-32.68,41.64-55.15,50.09-1.57-7.36-1.28-21.74-1-34.54.3-15,.39-22.94-1.22-25.16-3.21-4.41-10.22-4.54-12.86-4.59-.35,0-.61,0-.77,0h-.18c-1.27,0-6.93,2.23-22.24,8.52-3.22,1.32-6.15,2.52-8.23,3.35-2.38,1-6.06,1.08-9.35,1.08H67l-2.31,0c-1.42,0-2.42,0-3.25.11a5.54,5.54,0,0,0-4.68,3.18l-.23.57.23.57C66.84,174.4,64.26,195.53,63.25,201.4ZM18,143.68c-1.41,0-4.22.71-4.64,2.41a1.84,1.84,0,0,0,1,2.1c1.79,1,2.81,3.68,3.55,5.66s1.26,3.36,2.75,3.36h0a1.88,1.88,0,0,0,.62-.11c.43-.15,1.66-.6,3.67-5.8,4.37,2.8,5.27,2.81,5.63,2.81h0a1.71,1.71,0,0,0,1-.31c.34-.25.81-.6,1.57-3.65,3.89,3,4.63,3,5.05,3h.11a2.8,2.8,0,0,0,2-1,3,3,0,0,0,.58-2.42c-.25-1.78-6.79-7.92-8.53-8h0c-.66,0-1.8.08-4.07,4.2-2.41-2-3.34-2-3.68-2a1.84,1.84,0,0,0-1.24.47,8.72,8.72,0,0,1-1.58,1.07c-.36-.24-.85-.59-1.44-1.07A3.51,3.51,0,0,0,18,143.68Zm132.28-10.09a2,2,0,0,0-1.48.61,2.07,2.07,0,0,0-.53,1.6c.39,6.49,5.59,9.29,8.16,9.29a2.28,2.28,0,0,0,1.51-.48c.86-.72.83-1.91.8-3.42a12.91,12.91,0,0,1,.06-2.15,12.37,12.37,0,0,1,2.75,2.88c1,1.22,1.45,1.84,2.37,1.84h.2c.91-.12,1.41-.18,3.3-6.35,5.5,4.08,6.48,4.09,6.92,4.09h0a1.63,1.63,0,0,0,1.65-1.73c-.07-1.12-3.36-9.7-7-9.7h-.23c-2,.18-4.62,2.24-6.12,3.57-1.15-1-2.66-2.13-3.92-2.13a2.47,2.47,0,0,0-.6.08c-1.52.41-2,2.08-2.44,3.54,0,.2-.12.44-.2.66-.42-.2-1-.5-1.39-.73C152.37,134.15,151.26,133.59,150.28,133.59Z"/><path class="a" d="M132.73,59.07c1.47,1.87,3.57,4.54,6,7.61s4.93,6.18,7.17,8.94a26.64,26.64,0,0,0-3.82-.26c-11.43,0-23.21,6.93-30,17.66a37.9,37.9,0,0,0-4.2,9.08c-3.57,11.64-.66,22.85,7.24,29.39a35.06,35.06,0,0,0-4.78-.35l-.65,0-.18,0h-.15c-1.41,0-4.41,1.08-22.82,8.63-3.15,1.3-6.13,2.52-8.2,3.35s-5.84,1-8.8,1H67l-2.33,0c-1.45,0-2.5,0-3.37.11a7.09,7.09,0,0,0-5.94,4.12l-.46,1.14.47,1.13A95.58,95.58,0,0,1,62,199.68c-31.33-5.29-44.14-20.08-51.81-32.51C2,153.94,1.91,140.89,4.4,136.23c4.72-8.79,6.07-14.64,6.07-19.11l4.91-7.27c.07-.09,2.31-3.4,5.59-8.09a40,40,0,0,0-2,9.5c-1,11.69,3.75,22,12.36,27a23.57,23.57,0,0,0,11.93,3.13c11.29,0,22.9-7.46,29.57-19a41,41,0,0,0,5.36-16.63,32.78,32.78,0,0,0-1.83-14.52c.78,1.82,1.55,3.49,2.29,5l2.76,5.68,2.66-5.72c.06-.13,6.19-13.29,11.89-24.63,1.76-3.49,3.3-6.45,4.59-8.85,1,2,2.24,4.35,3.4,6.9a54,54,0,0,1,4.38,12.57l1.21,7.26,4.21-6c0-.08,5.28-7.55,11.48-15.38,2.74-3.46,5.26-6.47,7.52-9M27.84,143.73c-1.85-1.29-2.74-1.29-3.25-1.29a3.32,3.32,0,0,0-2.26.87,3.26,3.26,0,0,1-.49.37c-.17-.13-.36-.27-.55-.43A5.12,5.12,0,0,0,18,142.18c-2,0-5.45,1-6.1,3.54a3.37,3.37,0,0,0,1.76,3.8c1.3.69,2.24,3.2,2.86,4.86.76,2,1.62,4.33,4.15,4.33a3.32,3.32,0,0,0,1.13-.2c.74-.26,2-.72,3.87-5,3.46,2.1,4.32,2.1,4.92,2.1a3.19,3.19,0,0,0,1.88-.6c.47-.34.94-.68,1.52-2.36,2.81,2,3.55,2,4.22,2h.2a4.22,4.22,0,0,0,3.08-1.54,4.58,4.58,0,0,0,.91-3.58c-.1-.73-.26-1.83-4.13-5.49s-5.06-3.76-5.82-3.8H32.3c-1.16,0-2.46.32-4.46,3.47M66.13,62.67c.84,2.73,2,6.32,3.31,10.26,2.1,6.2,4.13,11.65,6,16.3a24,24,0,0,0-9.66-10.74,23.13,23.13,0,0,0-8.95-2.95c.55-.85,1.1-1.67,1.64-2.47,2.71-4,5.26-7.51,7.61-10.4M39.51,76.77q.21,1.08.48,2.22a36.46,36.46,0,0,0-4.46,2.79c1.38-1.78,2.71-3.47,4-5M172,78.85c3.34,5.45,7.09,14.3,7.63,27.05l.16,4,3.78-1.26a29.91,29.91,0,0,0,10.63-6.52c.59.86,1.28,1.84,2,2.88,1.52,7.2,1.44,13.09-.25,17a8.66,8.66,0,0,1-6.33,5.27l-2,.51-1.84.48-.36,1.87-.38,2a29.55,29.55,0,0,1-3.29,9.5c-.77,1.3-1.59,2.75-2.46,4.28l-.11.18C165.68,170,148,186.35,126.58,194.88c-1.18-7.68-.9-21.25-.68-32.46.35-17.29.31-23.57-1.51-26.07a1.71,1.71,0,0,0-.11-.14,27,27,0,0,0,7,.89c11.43,0,23.21-6.93,30-17.66a35.34,35.34,0,0,0,5.67-18.19c0-.8,0-1.6-.06-2.39l2.45,1.81.8-4.84a167.66,167.66,0,0,0,1.92-17m-9.41,52.82a6.69,6.69,0,0,0-3.9-1.66,3.66,3.66,0,0,0-1,.13,4.87,4.87,0,0,0-3.15,3.49,9.54,9.54,0,0,0-4.28-1.54,3.54,3.54,0,0,0-2.58,1.08,3.63,3.63,0,0,0-.93,2.72c.45,7.56,6.51,10.7,9.66,10.7a3.74,3.74,0,0,0,2.47-.83,4,4,0,0,0,1.33-3.09l.14.17c1.07,1.35,1.91,2.42,3.55,2.42h.2l.18,0c1.72-.21,2.5-1,3.93-5.39,4.44,3.15,5.38,3.15,6.11,3.15a3.13,3.13,0,0,0,3.15-3.31c-.09-1.5-3.64-11.12-8.52-11.12l-.36,0c-2,.17-4.27,1.68-6,3.09M10,103.19c0,1.71,0,3.45-.06,4.9l-.1,3.55c-.2-.88-.44-1.73-.66-2.55l0-.09c-.23-.82-.44-1.6-.6-2.4-.09-.41-.16-.87-.23-1.39.58-.7,1.13-1.38,1.68-2m123-48.75c-3.26,3.41-6.81,7.64-10.06,11.75-6.34,8-11.59,15.52-11.59,15.52-.66-3.95-2.58-8.88-4.61-13.33-2.92-6.4-6.08-11.8-6.08-11.8-1.9,3.1-4.57,8.19-7.32,13.65C87.47,81.74,81.33,94.94,81.33,94.94a210.73,210.73,0,0,1-9-23c-2.9-8.56-4.85-15.38-4.85-15.38A124.57,124.57,0,0,0,56,71.39c-1.69,2.51-3.25,4.94-4.6,7.11a23,23,0,0,1,2.48-.13,20.69,20.69,0,0,1,10.42,2.72c8,4.61,11.79,14.11,10.85,24.39a37.94,37.94,0,0,1-5,15.4c-6.37,11-17,17.52-27,17.52a20.64,20.64,0,0,1-10.43-2.73c-7.93-4.58-11.73-14-10.87-24.16a37.89,37.89,0,0,1,5-15.63A36.29,36.29,0,0,1,43.53,80.62,63.89,63.89,0,0,1,41.5,70c-9.35,9.76-28.6,38.22-28.6,38.22.13-4.81,0-12.56,0-12.56a90.55,90.55,0,0,0-7.73,8.68,24.63,24.63,0,0,0,.4,2.91c.19.93.43,1.81.67,2.69,1.49,5.37,3,10.92-4.48,24.93-2.91,5.42-3,19.53,5.88,33.92,7,11.41,20.26,29.06,56.81,34.36.6-2.83,5.06-26.17-6.34-53.73a4,4,0,0,1,3.42-2.25c.89-.08,1.95-.1,3.11-.1,1.51,0,3.2,0,4.91,0,3.61,0,7.35-.16,9.91-1.18,8-3.19,28.29-11.77,29.91-11.77h0c1.34.14,9.36-.4,12.56,4,3,4.12-1.44,47.86,2.42,60.8,31.46-11.2,49-36.31,57.5-51.33.91-1.6,1.76-3.08,2.55-4.42a32.34,32.34,0,0,0,3.65-10.46l.38-2,2-.51a11.61,11.61,0,0,0,8.33-7c2.31-5.41,1.78-12.73.29-19.46-2.7-3.73-4.64-6.78-4.64-6.78-3.35,6-11.77,8.82-11.77,8.82-1.07-25.4-14.16-36.09-14.16-36.09,2,5.35-1.34,25.66-1.34,25.66A55.21,55.21,0,0,1,161,89a24.14,24.14,0,0,1,2.89,12.16,32.3,32.3,0,0,1-5.2,16.63c-6.48,10.24-17.34,16.27-27.47,16.27a22.66,22.66,0,0,1-10.62-2.53c-9.81-5.17-13.44-16.9-9.86-28.59a34.81,34.81,0,0,1,3.86-8.35C121.1,84.4,132,78.36,142.09,78.36a22.66,22.66,0,0,1,10.62,2.53,20.48,20.48,0,0,1,3,2c-4.85-5.81-10.3-12.57-14.65-18-4.73-5.94-8.17-10.37-8.17-10.37Zm29.68,81.27s4-3.94,6.28-4.15H169c2.27,0,5.45,7.17,5.52,8.29,0,.1-.05.14-.15.14-1.08,0-7.74-5.08-7.74-5.08s-2.13,7.28-2.67,7.35h0c-.56,0-3.25-4.81-5.42-4.81s-.72,5.34-1.52,6a.87.87,0,0,1-.55.13c-1.72,0-6.32-2.07-6.67-7.88,0-.44.18-.62.52-.62,1.3,0,4.64,2.45,5.76,2.45a.37.37,0,0,0,.27-.09c.81-.81,1-4.08,2.19-4.41a.66.66,0,0,1,.21,0c1.31,0,3.89,2.7,3.89,2.7ZM28.7,148.37s2.54-5.11,3.6-5.11h0c1.06.05,7,5.66,7.12,6.72s-.4,1.65-1.2,1.7h0c-.85,0-6-4.21-6-4.21s-.95,4.71-1.5,5.11a.21.21,0,0,1-.12,0c-1,0-6.4-3.6-6.4-3.6s-2.15,6.23-3.41,6.68l-.11,0c-1.18,0-1.86-6.85-5.6-8.84-1.05-.56,1.19-1.69,2.93-1.69a2.13,2.13,0,0,1,1.38.39,14.68,14.68,0,0,0,2.34,1.63,14.34,14.34,0,0,0,2.65-1.68.27.27,0,0,1,.22-.08c1,0,4.11,2.93,4.11,2.93Z"/><path class="a" d="M87.68,203.16a169.6,169.6,0,0,1-17.75-.89,50.07,50.07,0,0,0,2.87-9.57c.16-1.38-.21-5-.89-11.34-.16-1.5-.33-3.07-.5-4.68l.9-.9c3.23-3.26,9.23-9.34,17.52-10.9a50.8,50.8,0,0,1,9.24-.77,71.35,71.35,0,0,1,17.79,2.21c.42,12.89.5,26.77.52,33.23a101,101,0,0,1-24.16,3.53c-1.87,0-3.73.08-5.54.08Z"/><path class="a" d="M99.07,165.61a71.7,71.7,0,0,1,16.32,1.87c.37,11.82.46,24.28.48,30.92a100,100,0,0,1-22.69,3.18c-1.85,0-3.7.08-5.5.08-5.45,0-10.7-.23-15.67-.69a42.17,42.17,0,0,0,2.27-8.09c.19-1.55-.15-4.89-.88-11.69-.14-1.27-.28-2.6-.42-3.95.13-.13.26-.27.4-.4,3.11-3.15,8.9-9,16.73-10.48a48.68,48.68,0,0,1,9-.75m0-3a51.48,51.48,0,0,0-9.52.8c-10.26,1.93-17.2,10.41-19.7,12.69.78,7.63,1.66,14.73,1.46,16.41-.4,3.23-2.78,9.26-3.5,11a166.84,166.84,0,0,0,19.87,1.12c1.82,0,3.68,0,5.58-.08a101.45,101.45,0,0,0,25.62-3.9c0-5.8-.08-21.38-.56-35.45-2.9-1.08-10.91-2.62-19.25-2.62Z"/><path class="a" d="M200.94,49.66a163.75,163.75,0,0,0-21.13-11c4.92-.86,11.51-2.1,14.29-3.09l1.8-.63-1-1.6c-.59-.91-14.62-21.93-55.1-28.4,1-1,2.27-2.18,3.75-3.41h57.43Z"/><path class="a" d="M199.44,3V47c-4.32-2.57-9.7-5.46-14.56-7.74A81.43,81.43,0,0,0,194.6,37l3.59-1.27-2.07-3.19c-.59-.91-14.29-21.45-53.14-28.56.34-.31.7-.62,1.08-.94h55.38m3-3H143a57,57,0,0,0-6.3,6c42.51,5.88,56.92,28.16,56.92,28.16-4.54,1.6-20,4-20,4,5.21.81,21.62,9.33,28.89,14.29V0Z"/><path class="a" d="M129.48,207c34.37-11.77,50.33-39.79,59.28-55.49.89-1.56,1.71-3,2.48-4.31a37.55,37.55,0,0,0,4-10.26,19.47,19.47,0,0,0,5.68-3.47V207Z"/><path class="a" d="M199.44,136.47v69H137.31c30-13.39,45-39.56,52.75-53.25.88-1.53,1.71-3,2.47-4.29a38.51,38.51,0,0,0,4-9.93,21.2,21.2,0,0,0,2.91-1.55m3-6.87a17.53,17.53,0,0,1-8.45,6.21,37.21,37.21,0,0,1-4,10.62c-.77,1.31-1.6,2.76-2.5,4.33-9.44,16.57-27.78,48.75-68.93,57.73h83.92V129.6Z"/></svg>